<svg version="1.1" viewBox="0 0 512 512" xmlns="http://www.w3.org/2000/svg"><g><path d="m203.84 181.3c19.264-16.661 22.909-52.066 26.554-72.892 3.6446-20.826 6.7686-84.868 32.281-85.388 25.512-0.52066 26.554 42.173 30.198 78.62 3.6446 36.446 6.2479 67.686 26.033 83.306 19.785 15.62 46.859 7.8099 81.223 1.0413 34.364-6.7686 87.471-23.43 92.157 3.6446 4.6859 27.074-40.091 39.57-68.727 55.711-28.636 16.14-57.793 34.364-62.479 53.107-4.6859 18.744 6.7686 50.504 20.826 80.702 14.058 30.198 36.967 73.934 18.223 89.033-18.744 15.099-44.777-30.198-60.397-47.38-15.62-17.182-48.421-55.19-74.975-55.711-26.554-0.52066-49.463 20.826-66.644 41.132-17.182 20.306-54.669 73.413-78.099 58.835-23.43-14.578 7.8099-59.355 21.347-86.95 13.537-27.595 34.364-59.876 24.471-82.785s-38.008-30.719-65.603-41.653c-27.595-10.934-84.868-23.43-81.744-43.215 3.124-19.785 47.38-23.43 99.967-19.264 52.587 4.1653 69.248 4.1653 85.388-9.8925z" fill="#f79e00"/><g fill="#f48600"><circle cx="262.15" cy="206.81" r="20.228"/><circle cx="316.3" cy="247.43" r="20.228"/><circle cx="294.95" cy="305.74" r="20.228"/><circle cx="231.43" cy="305.22" r="20.228"/><circle cx="212.17" cy="249.51" r="20.228"/><circle cx="154.08" cy="233.4" r="16.183"/><circle cx="262.15" cy="145.52" r="16.183"/><circle cx="373.43" cy="231.19" r="16.183"/><circle cx="328.46" cy="350.79" r="16.183"/><circle cx="199.26" cy="352.21" r="16.183"/><ellipse cx="110.77" cy="222.88" rx="8.0913" ry="8.0913"/><ellipse cx="262.82" cy="104.72" rx="8.0913" ry="8.0913"/><ellipse cx="414.98" cy="215.72" rx="8.0913" ry="8.0913"/><ellipse cx="353.26" cy="392.2" rx="8.0913" ry="8.0913"/><circle cx="371.06" cy="421.36" r="4.2748"/><circle cx="152.6" cy="420.31" r="4.2748"/><circle cx="80.8" cy="216.71" r="4.2748"/><circle cx="262.82" cy="77.098" r="4.2748"/><circle cx="442.52" cy="207.35" r="4.2748"/><ellipse cx="172.57" cy="390.87" rx="8.0913" ry="8.0913"/></g></g></svg>
